<svg width="129" height="75" viewBox="0 0 129 75" fill="none" xmlns="http://www.w3.org/2000/svg">
<g id="envelope">
<path id="Polygon 4" d="M62.4467 45.3475C63.092 45.7473 63.908 45.7473 64.5533 45.3475L116.85 12.9502C118.562 11.8898 117.81 9.25 115.797 9.25H11.2034C9.18992 9.25 8.43851 11.8898 10.1502 12.9502L62.4467 45.3475Z" fill="white"/>
<path id="Polygon 5" d="M116.68 17.8945L64.8954 49.2879C64.2582 49.6742 63.4591 49.6742 62.8218 49.2879L11.0368 17.8945C9.70394 17.0865 8 18.0461 8 19.6048V73C8 74.1046 8.89543 75 10 75H117.717C118.822 75 119.717 74.1046 119.717 73V19.6048C119.717 18.0461 118.013 17.0865 116.68 17.8945Z" fill="white"/>
</g>
</svg>
