<svg width="70" height="70" viewBox="0 0 70 70" fill="none" xmlns="http://www.w3.org/2000/svg">
<g id="logo-linkdn" clip-path="url(#clip0_36_58)">
<path id="Subtract" fill-rule="evenodd" clip-rule="evenodd" d="M0 21.9835C0 9.84234 9.84234 0 21.9835 0H48.0165C60.1577 0 70 9.84234 70 21.9835V48.0165C70 60.1577 60.1577 70 48.0165 70H21.9835C9.84234 70 0 60.1577 0 48.0165V21.9835ZM58.9855 51.3584L60.4239 52.5466C57.985 56.5488 54.8582 58.675 50.6058 58.675C46.8537 58.675 44.8526 56.5488 44.8526 53.7973C44.8526 53.1094 44.9776 52.1088 45.1652 51.4835L49.105 36.9753C49.2926 36.2249 49.4802 35.4119 49.4802 34.5364C49.4802 33.3482 48.5421 32.7229 47.1664 32.7229C44.4774 32.7229 41.7258 34.724 40.225 36.2249L34.7844 57.9246H26.6548L33.2835 31.3471L29.4689 29.8463L29.8441 28.2829H42.1635L40.9128 33.2232C44.9151 29.471 47.7292 27.5324 51.6689 27.5324C55.4836 27.5324 58.1101 29.8463 58.1101 32.7229C58.1101 33.5358 57.9225 34.4113 57.7974 34.9116L53.4824 50.8581C53.2948 51.546 53.1698 52.2339 53.1698 52.8592C53.1698 53.8598 53.7326 54.2976 54.8582 54.2976C56.234 54.2976 57.7974 53.1719 58.9855 51.3584ZM21.3412 21.9043C23.9677 21.9043 26.0314 19.7155 25.9688 17.0265C25.9688 14.3375 23.8426 12.1488 21.2161 12.1488C18.5271 12.1488 16.4635 14.3375 16.4635 17.0265C16.526 19.7155 18.6522 21.9043 21.3412 21.9043ZM18.6522 49.8576L24.0928 28.2829H11.7108L11.3356 29.8463L15.2127 31.3471L10.1474 51.4835C9.95978 52.2339 9.83471 53.1719 9.83471 53.7973C9.89725 56.4863 11.7733 58.675 16.0257 58.675C20.153 58.675 23.2798 56.2362 25.4685 52.5466L23.9677 51.3584C22.9046 52.9843 21.4037 54.2976 19.9654 54.2976C18.8398 54.2976 18.2144 53.7348 18.2144 52.6091C18.2144 51.8587 18.402 50.8581 18.6522 49.8576Z" fill="white"/>
<path id="Subtract (Stroke)" fill-rule="evenodd" clip-rule="evenodd" d="M65.1974 50.4869C65.3124 49.68 65.3719 48.8552 65.3719 48.0165V21.9835C65.3719 12.3984 57.6016 4.6281 48.0165 4.6281H21.9835C12.3984 4.6281 4.6281 12.3984 4.6281 21.9835V48.0165C4.6281 49.634 4.84936 51.1997 5.26326 52.6852C5.33817 51.8927 5.48147 51.065 5.65747 50.361L5.65911 50.3544L9.72631 34.1861L5.89081 32.7014L8.06199 23.6548H14.5552C12.9057 21.9451 11.8946 19.6278 11.8366 17.1341L11.8354 17.0803V17.0265C11.8354 11.9401 15.8153 7.52066 21.2161 7.52066C26.4967 7.52066 30.5683 11.8691 30.5968 16.9727C30.6419 19.5255 29.6712 21.9072 28.025 23.6548H46.9235C48.3753 23.1748 49.9398 22.9043 51.6689 22.9043C57.1814 22.9043 62.7382 26.5092 62.7382 32.7229C62.7382 34.1197 62.4353 35.4419 62.2873 36.0341L62.2765 36.0774L59.6234 45.8823L65.1974 50.4869ZM53.2596 53.4633C53.4593 54.0384 53.9922 54.2976 54.8582 54.2976C55.7709 54.2976 56.7662 53.8021 57.6797 52.9391C57.7076 52.9128 57.7353 52.8862 57.763 52.8592C57.7745 52.848 57.786 52.8367 57.7975 52.8254C57.7981 52.8248 57.7987 52.8242 57.7993 52.8236C58.1629 52.4644 58.5122 52.0469 58.8366 51.5793C58.8869 51.5069 58.9365 51.4332 58.9855 51.3584L60.4239 52.5466C58.8809 55.0786 57.0626 56.8597 54.8582 57.8267C54.0984 58.1599 53.2928 58.3965 52.4367 58.5337C51.8505 58.6276 51.2407 58.675 50.6058 58.675C46.8537 58.675 44.8526 56.5488 44.8526 53.7973C44.8526 53.1094 44.9776 52.1088 45.1652 51.4835L49.105 36.9753C49.2926 36.2249 49.4802 35.4119 49.4802 34.5364C49.4802 33.8196 49.1388 33.3077 48.566 33.0143C48.1892 32.8213 47.7122 32.7229 47.1664 32.7229C46.701 32.7229 46.2337 32.7828 45.7714 32.8897C44.9413 33.0817 44.1272 33.4251 43.3683 33.8448C42.9566 34.0726 42.5611 34.3228 42.1882 34.5835C41.4194 35.121 40.7466 35.7032 40.225 36.2249L34.7844 57.9246H26.6548L33.2835 31.3471L29.4689 29.8463L29.8441 28.2829H42.1635L40.9128 33.2232C41.0254 33.1177 41.137 33.0136 41.2477 32.911C41.5596 32.6218 41.8645 32.344 42.1635 32.0776C43.485 30.9007 44.6911 29.9477 45.8814 29.2241C46.1994 29.0308 46.5162 28.8539 46.8337 28.6935C46.9445 28.6375 47.0553 28.5835 47.1664 28.5316C47.4755 28.3869 47.7859 28.2579 48.0994 28.1444C49.2232 27.7379 50.3864 27.5324 51.6689 27.5324C55.4836 27.5324 58.1101 29.8463 58.1101 32.7229C58.1101 33.5358 57.9225 34.4113 57.7974 34.9116L53.4824 50.8581C53.2948 51.546 53.1698 52.2339 53.1698 52.8592C53.1698 53.09 53.1997 53.2908 53.2596 53.4633ZM27.8103 34.1671L27.4206 34.0138L24.4408 45.8301L24.8255 46.1346L27.8103 34.1671ZM18.3775 53.4649C18.2699 53.2296 18.2144 52.9443 18.2144 52.6091C18.2144 51.8587 18.402 50.8581 18.6522 49.8576L24.0928 28.2829H11.7108L11.3356 29.8463L15.2127 31.3471L10.1474 51.4835C9.95978 52.2339 9.83471 53.1719 9.83471 53.7973C9.89725 56.4863 11.7733 58.675 16.0257 58.675C16.5825 58.675 17.121 58.6307 17.6415 58.5448C18.4607 58.4097 19.2351 58.1719 19.9654 57.8428C20.7876 57.4723 21.5539 56.986 22.2651 56.4002C22.3649 56.318 22.4636 56.2339 22.5612 56.1478C22.6273 56.0895 22.693 56.0303 22.7581 55.9703C23.7834 55.0252 24.6859 53.8658 25.4685 52.5466L23.9677 51.3584C23.9209 51.43 23.8732 51.5011 23.8247 51.5714C23.657 51.8145 23.4798 52.0494 23.2946 52.2724C23.1527 52.4434 23.0062 52.6074 22.8558 52.7629C21.9709 53.6779 20.9534 54.2976 19.9654 54.2976C19.175 54.2976 18.6312 54.02 18.3775 53.4649ZM20.739 62.519C19.3036 63.0212 17.7336 63.3031 16.0257 63.3031C15.1075 63.3031 14.2046 63.2276 13.3331 63.0658C15.8797 64.5328 18.8336 65.3719 21.9835 65.3719H48.0165C54.0395 65.3719 59.346 62.3038 62.4582 57.6452C59.5367 61.1323 55.6522 63.3031 50.6058 63.3031C47.8664 63.3031 45.2287 62.5168 43.22 60.7025C41.4963 59.1456 40.5475 57.1075 40.2942 54.9793L38.3954 62.5527H20.7306L20.739 62.519ZM25.9688 17.0265C25.9688 14.3375 23.8426 12.1488 21.2161 12.1488C18.5271 12.1488 16.4635 14.3375 16.4635 17.0265C16.526 19.7155 18.6522 21.9043 21.3412 21.9043C23.9677 21.9043 26.0314 19.7155 25.9688 17.0265ZM21.9835 0C9.84234 0 0 9.84234 0 21.9835V48.0165C0 60.1577 9.84234 70 21.9835 70H48.0165C60.1577 70 70 60.1577 70 48.0165V21.9835C70 9.84234 60.1577 0 48.0165 0H21.9835Z" fill="white"/>
</g>
<defs>
<clipPath id="clip0_36_58">
<rect width="70" height="70" fill="white"/>
</clipPath>
</defs>
</svg>
