<svg width="70" height="70" viewBox="0 0 70 70" fill="none" xmlns="http://www.w3.org/2000/svg">
<g id="logo-insta">
<path id="Rectangle 4 (Stroke)" fill-rule="evenodd" clip-rule="evenodd" d="M48.0165 4.6281H21.9835C12.3984 4.6281 4.6281 12.3984 4.6281 21.9835V48.0165C4.6281 57.6016 12.3984 65.3719 21.9835 65.3719H48.0165C57.6016 65.3719 65.3719 57.6016 65.3719 48.0165V21.9835C65.3719 12.3984 57.6016 4.6281 48.0165 4.6281ZM21.9835 0C9.84234 0 0 9.84234 0 21.9835V48.0165C0 60.1577 9.84234 70 21.9835 70H48.0165C60.1577 70 70 60.1577 70 48.0165V21.9835C70 9.84234 60.1577 0 48.0165 0H21.9835Z" fill="white"/>
<path id="Ellipse 1 (Stroke)" fill-rule="evenodd" clip-rule="evenodd" d="M54.3801 35.2893C54.3801 45.8329 45.8328 54.3802 35.2892 54.3802C24.7455 54.3802 16.1982 45.8329 16.1982 35.2893C16.1982 24.7456 24.7455 16.1983 35.2892 16.1983C45.8328 16.1983 54.3801 24.7456 54.3801 35.2893ZM35.2892 49.7521C43.2767 49.7521 49.752 43.2768 49.752 35.2893C49.752 27.3017 43.2767 20.8264 35.2892 20.8264C27.3016 20.8264 20.8263 27.3017 20.8263 35.2893C20.8263 43.2768 27.3016 49.7521 35.2892 49.7521Z" fill="white"/>
<path id="Ellipse 2" d="M52.066 14.7521C52.066 12.6753 53.7496 10.9917 55.8263 10.9917C57.9031 10.9917 59.5867 12.6753 59.5867 14.7521C59.5867 16.8288 57.9031 18.5124 55.8263 18.5124C53.7496 18.5124 52.066 16.8288 52.066 14.7521Z" fill="white"/>
</g>
</svg>
